<?xml version="1.0" encoding="UTF-8"?>
<svg id="SVGDoc" width="12" height="21" xmlns="http://www.w3.org/2000/svg" version="1.1" xmlns:xlink="http://www.w3.org/1999/xlink" xmlns:avocode="https://avocode.com/" viewBox="0 0 12 21"><defs></defs><desc>Generated with Avocode.</desc><g><g><title>down</title><path d="M0.09084,14.63213c0.15381,-0.3744 0.51773,-0.61766 0.92068,-0.61766h3.98643v-13.00391c0,-0.55288 0.44586,-1.00044 0.99667,-1.00044c0.5508,0 0.99655,0.44756 0.99655,1.00044v13.00391h3.98643c0.40295,0 0.76698,0.24326 0.92068,0.61766c0.15484,0.37395 0.06924,0.80407 -0.21606,1.09036l-4.98299,5.00243c-0.38933,0.39071 -1.02001,0.39071 -1.40923,0l-4.9831,-5.00243c-0.28519,-0.28629 -0.37079,-0.71641 -0.21606,-1.09036zM3.41741,16.01535l2.57721,2.58728l2.5771,-2.58728z" fill-opacity="1"></path></g></g></svg>
